<svg width="26" height="26" viewBox="0 0 26 26" fill="none" xmlns="http://www.w3.org/2000/svg">
<circle cx="13" cy="13" r="10" fill="#61C291" fill-opacity="0.2"/>
<circle cx="13" cy="13" r="11.5" stroke="#61C291" stroke-opacity="0.1" stroke-width="3"/>
<path d="M13.1227 6C13.3538 6.08991 13.5227 6.23248 13.535 6.50092C13.5479 6.78028 13.3637 7.00986 13.0855 7.04117C12.7877 7.07456 12.4862 7.07633 12.1895 7.11615C11.0854 7.26369 10.1023 7.69911 9.24722 8.4097C8.26866 9.22305 7.58375 10.24 7.28079 11.4802C6.78212 13.5219 7.21368 15.3561 8.6071 16.9404C9.52946 17.9893 10.6954 18.6315 12.074 18.8402C13.8873 19.1147 15.5098 18.6562 16.9039 17.4533C17.8243 16.6594 18.4504 15.6712 18.7449 14.4904C18.8509 14.0659 18.8782 13.6217 18.9387 13.1862C18.9499 13.106 18.9438 13.0225 18.9538 12.9414C18.9859 12.6791 19.1644 12.4935 19.4033 12.4673C19.662 12.4389 19.8742 12.5705 19.9702 12.8181C19.979 12.8383 19.9888 12.858 19.9996 12.8772V13.3958C19.9911 13.4439 19.9815 13.4921 19.9744 13.5403C19.9307 13.8411 19.9058 14.146 19.8415 14.4422C19.4768 16.1203 18.6153 17.4954 17.2487 18.5305C15.5488 19.8183 13.6343 20.2456 11.5466 19.8102C9.87561 19.4617 8.51719 18.5859 7.47795 17.235C6.35586 15.7764 5.8885 14.1153 6.06511 12.2873C6.20735 10.8061 6.78245 9.49823 7.76951 8.38177C8.85146 7.15789 10.1993 6.3956 11.8102 6.10869C12.0732 6.06197 12.3401 6.0358 12.6046 6H13.1227Z" fill="#61C291"/>
<path d="M12.553 14.2438C12.5981 14.1786 12.6233 14.1276 12.6616 14.0894C14.7022 12.0522 16.7432 10.0153 18.7848 7.97868C18.934 7.82969 19.0948 7.72709 19.3162 7.76675C19.4064 7.78155 19.491 7.8198 19.5618 7.87765C19.6325 7.9355 19.6867 8.01093 19.719 8.09637C19.7514 8.1818 19.7607 8.27424 19.7461 8.36442C19.7314 8.45459 19.6933 8.53932 19.6356 8.61012C19.6005 8.65204 19.5629 8.69187 19.5232 8.72941C17.3397 10.9074 15.1562 13.0856 12.9727 15.2638C12.6516 15.5849 12.3642 15.5772 12.0532 15.2399C11.2088 14.3234 10.3648 13.4066 9.52101 12.4895C9.27521 12.2188 9.29464 11.8624 9.5642 11.6675C9.65817 11.5979 9.77297 11.5623 9.8898 11.5665C10.0066 11.5707 10.1186 11.6144 10.2074 11.6904C10.2517 11.7295 10.2936 11.7712 10.3328 11.8155C11.0392 12.5813 11.7448 13.3474 12.4495 14.1138C12.4768 14.1435 12.5 14.177 12.553 14.2438Z" fill="#61C291"/>
</svg>
