<svg width="512" height="512" viewBox="0 0 512 512" fill="none" xmlns="http://www.w3.org/2000/svg">
<circle cx="256" cy="256" r="256" fill="#1D5E6D"/>
<path d="M133 119V146.4H146.722V187.5C146.722 217.722 171.34 242.3 201.611 242.3H242.778V187.5H201.611V146.4H215.333V119H133ZM270.222 187.5V242.3H311.389V283.4H297.667V310.8H380V283.4H366.278V242.3C366.278 212.078 341.66 187.5 311.389 187.5H270.222ZM338.833 324.5C338.833 324.5 311.389 350.461 311.389 365.6C311.389 380.738 323.67 393 338.833 393C353.996 393 366.278 380.738 366.278 365.6C366.278 350.461 338.833 324.5 338.833 324.5Z" fill="#15FF9C"/>
<mask id="mask0_259_312" style="mask-type:alpha" maskUnits="userSpaceOnUse" x="296" y="317" width="84" height="86">
<rect x="296" y="317" width="84" height="86" fill="white"/>
</mask>
<g mask="url(#mask0_259_312)">
<path d="M133 119V146.4H146.722V187.5C146.722 217.722 171.34 242.3 201.611 242.3H242.778V187.5H201.611V146.4H215.333V119H133ZM270.222 187.5V242.3H311.389V283.4H297.667V310.8H380V283.4H366.278V242.3C366.278 212.078 341.66 187.5 311.389 187.5H270.222ZM338.833 324.5C338.833 324.5 311.389 350.461 311.389 365.6C311.389 380.738 323.67 393 338.833 393C353.996 393 366.278 380.738 366.278 365.6C366.278 350.461 338.833 324.5 338.833 324.5Z" fill="white"/>
</g>
</svg>
